<svg width="32" height="32" viewBox="0 0 32 32" fill="none" xmlns="http://www.w3.org/2000/svg">
<path d="M16 2C8.26801 2 2 8.26801 2 16C2 23.732 8.26801 30 16 30C23.732 30 30 23.732 30 16C30 8.26801 23.732 2 16 2Z" fill="#A7F3D0"/>
<path d="M20.5858 10.5858C21.3668 9.80474 22.6332 9.80474 23.4142 10.5858C24.1953 11.3668 24.1953 12.6332 23.4142 13.4142L13.4142 23.4142C12.6332 24.1953 11.3668 24.1953 10.5858 23.4142C9.80474 22.6332 9.80474 21.3668 10.5858 20.5858L20.5858 10.5858Z" fill="#34D399"/>
<path d="M11.4142 10.5858C10.6332 11.3668 10.6332 12.6332 11.4142 13.4142L16.0711 18.0711L13.9289 20.2132C13.1478 20.9943 11.8815 20.9943 11.0992 20.2132C10.3181 19.4322 10.3181 18.1658 11.0992 17.3848L11.4142 10.5858Z" fill="#10B981"/>
<path d="M20.9289 13.9289L18.7868 11.7868C19.5678 11.0057 20.8342 11.0057 21.6152 11.7868C22.3963 12.5678 22.3963 13.8342 21.6152 14.6152L20.9289 13.9289Z" fill="#059669"/>
</svg>